<svg version="1.1" viewBox="59.392 204.8 888.832 589.824" xmlns="http://www.w3.org/2000/svg" style="max-height: 500px" width="888.832" height="589.824"><path fill-rule="evenodd" fill="#fed821" stroke="none" d="M 641 284.614 C 609.973 288.370, 585.859 295.346, 561.537 307.605 C 515.599 330.757, 478.408 370.659, 459.581 416.992 C 458.162 420.486, 457 423.492, 457 423.672 C 457 423.853, 459.925 424, 463.500 424 L 470 424 470.020 432.250 L 470.039 440.500 473.512 436.359 C 483.375 424.599, 501.984 419.315, 520.201 423.102 C 539.060 427.022, 553.782 442.284, 560.180 464.545 C 562.155 471.419, 562.468 474.810, 562.483 489.500 C 562.503 509.103, 561.429 514.524, 554.881 527.883 C 545.528 546.962, 527.690 558, 506.211 558 C 492.277 558, 479.179 552.371, 472.881 543.677 L 470 539.700 470 570.784 L 470 601.867 467.437 602.184 C 464.888 602.498, 464.912 602.564, 471.634 613.794 C 488.409 641.817, 512.121 666.079, 541.500 685.281 C 614.469 732.972, 710.590 732.523, 783.566 684.151 C 831.435 652.421, 863.770 605.464, 875.941 550 C 879.666 533.028, 880.501 523.865, 880.452 500.500 C 880.411 481.301, 880.041 475.517, 878.213 465.500 C 869.813 419.472, 850.688 382.250, 819.020 350.293 C 785.471 316.439, 744.260 295.114, 696.500 286.895 C 684.932 284.905, 650.344 283.483, 641 284.614 M 224.333 370.667 C 224.700 371.033, 225.300 371.033, 225.667 370.667 C 226.033 370.300, 225.733 370, 225 370 C 224.267 370, 223.967 370.300, 224.333 370.667 M 165 371.500 C 165 371.775, 165.225 372, 165.500 372 C 165.775 372, 166 371.775, 166 371.500 C 166 371.225, 165.775 371, 165.500 371 C 165.225 371, 165 371.225, 165 371.500 M 177 371.500 C 177 371.775, 177.225 372, 177.500 372 C 177.775 372, 178 371.775, 178 371.500 C 178 371.225, 177.775 371, 177.500 371 C 177.225 371, 177 371.225, 177 371.500 M 218 371.500 C 218 371.775, 218.225 372, 218.500 372 C 218.775 372, 219 371.775, 219 371.500 C 219 371.225, 218.775 371, 218.500 371 C 218.225 371, 218 371.225, 218 371.500 M 230 371.500 C 230 371.775, 230.225 372, 230.500 372 C 230.775 372, 231 371.775, 231 371.500 C 231 371.225, 230.775 371, 230.500 371 C 230.225 371, 230 371.225, 230 371.500 M 181 373.500 C 181 373.775, 181.225 374, 181.500 374 C 181.775 374, 182 373.775, 182 373.500 C 182 373.225, 181.775 373, 181.500 373 C 181.225 373, 181 373.225, 181 373.500 M 214 373.500 C 214 373.775, 214.225 374, 214.500 374 C 214.775 374, 215 373.775, 215 373.500 C 215 373.225, 214.775 373, 214.500 373 C 214.225 373, 214 373.225, 214 373.500 M 155 379.500 C 155 379.775, 155.225 380, 155.500 380 C 155.775 380, 156 379.775, 156 379.500 C 156 379.225, 155.775 379, 155.500 379 C 155.225 379, 155 379.225, 155 379.500 M 154 381.500 C 154 381.775, 154.225 382, 154.500 382 C 154.775 382, 155 381.775, 155 381.500 C 155 381.225, 154.775 381, 154.500 381 C 154.225 381, 154 381.225, 154 381.500 M 188 381.500 C 188 381.775, 188.225 382, 188.500 382 C 188.775 382, 189 381.775, 189 381.500 C 189 381.225, 188.775 381, 188.500 381 C 188.225 381, 188 381.225, 188 381.500 M 207 381.500 C 207 381.775, 207.225 382, 207.500 382 C 207.775 382, 208 381.775, 208 381.500 C 208 381.225, 207.775 381, 207.500 381 C 207.225 381, 207 381.225, 207 381.500 M 242 383.500 C 242 383.775, 242.225 384, 242.500 384 C 242.775 384, 243 383.775, 243 383.500 C 243 383.225, 242.775 383, 242.500 383 C 242.225 383, 242 383.225, 242 383.500 M 189 384.500 C 189 384.775, 189.225 385, 189.500 385 C 189.775 385, 190 384.775, 190 384.500 C 190 384.225, 189.775 384, 189.500 384 C 189.225 384, 189 384.225, 189 384.500 M 206 384.500 C 206 384.775, 206.225 385, 206.500 385 C 206.775 385, 207 384.775, 207 384.500 C 207 384.225, 206.775 384, 206.500 384 C 206.225 384, 206 384.225, 206 384.500 M 728.955 391.750 C 728.930 392.163, 728.949 399.587, 728.998 408.250 L 729.086 424 718.543 424 L 708 424 708 438.500 L 708 453 718.513 453 L 729.025 453 728.976 491.005 C 728.925 529.273, 729.252 533.599, 732.715 540.500 C 734.694 544.443, 740.762 550.778, 744.378 552.674 C 754.289 557.872, 772.078 558.940, 784.250 555.067 L 791 552.920 791 537.853 C 791 523.908, 790.870 522.837, 789.250 523.475 C 786.243 524.660, 777.359 525.290, 773.601 524.585 C 766.803 523.310, 766.545 521.942, 766.176 485.250 L 765.853 453 778.426 453 L 791 453 791 438.500 L 791 424 778.500 424 L 766 424 766 407.500 L 766 391 747.500 391 C 737.325 391, 728.980 391.337, 728.955 391.750 M 206 393.500 C 206 393.775, 206.225 394, 206.500 394 C 206.775 394, 207 393.775, 207 393.500 C 207 393.225, 206.775 393, 206.500 393 C 206.225 393, 206 393.225, 206 393.500 M 153 394.500 C 153 394.775, 153.225 395, 153.500 395 C 153.775 395, 154 394.775, 154 394.500 C 154 394.225, 153.775 394, 153.500 394 C 153.225 394, 153 394.225, 153 394.500 M 189 394.500 C 189 394.775, 189.225 395, 189.500 395 C 189.775 395, 190 394.775, 190 394.500 C 190 394.225, 189.775 394, 189.500 394 C 189.225 394, 189 394.225, 189 394.500 M 154 397.500 C 154 397.775, 154.225 398, 154.500 398 C 154.775 398, 155 397.775, 155 397.500 C 155 397.225, 154.775 397, 154.500 397 C 154.225 397, 154 397.225, 154 397.500 M 240 399.500 C 240 399.775, 240.225 400, 240.500 400 C 240.775 400, 241 399.775, 241 399.500 C 241 399.225, 240.775 399, 240.500 399 C 240.225 399, 240 399.225, 240 399.500 M 186 400.500 C 186 400.775, 186.225 401, 186.500 401 C 186.775 401, 187 400.775, 187 400.500 C 187 400.225, 186.775 400, 186.500 400 C 186.225 400, 186 400.225, 186 400.500 M 210 401.500 C 210 401.775, 210.225 402, 210.500 402 C 210.775 402, 211 401.775, 211 401.500 C 211 401.225, 210.775 401, 210.500 401 C 210.225 401, 210 401.225, 210 401.500 M 212 403.500 C 212 403.775, 212.225 404, 212.500 404 C 212.775 404, 213 403.775, 213 403.500 C 213 403.225, 212.775 403, 212.500 403 C 212.225 403, 212 403.225, 212 403.500 M 160 404.500 C 160 404.775, 160.225 405, 160.500 405 C 160.775 405, 161 404.775, 161 404.500 C 161 404.225, 160.775 404, 160.500 404 C 160.225 404, 160 404.225, 160 404.500 M 182 404.500 C 182 404.775, 182.225 405, 182.500 405 C 182.775 405, 183 404.775, 183 404.500 C 183 404.225, 182.775 404, 182.500 404 C 182.225 404, 182 404.225, 182 404.500 M 166 407.500 C 166 407.775, 166.225 408, 166.500 408 C 166.775 408, 167 407.775, 167 407.500 C 167 407.225, 166.775 407, 166.500 407 C 166.225 407, 166 407.225, 166 407.500 M 176 407.500 C 176 407.775, 176.225 408, 176.500 408 C 176.775 408, 177 407.775, 177 407.500 C 177 407.225, 176.775 407, 176.500 407 C 176.225 407, 176 407.225, 176 407.500 M 229 407.500 C 229 407.775, 229.225 408, 229.500 408 C 229.775 408, 230 407.775, 230 407.500 C 230 407.225, 229.775 407, 229.500 407 C 229.225 407, 229 407.225, 229 407.500 M 187 421.500 C 187 421.775, 187.225 422, 187.500 422 C 187.775 422, 188 421.775, 188 421.500 C 188 421.225, 187.775 421, 187.500 421 C 187.225 421, 187 421.225, 187 421.500 M 206 421.500 C 206 421.775, 206.225 422, 206.500 422 C 206.775 422, 207 421.775, 207 421.500 C 207 421.225, 206.775 421, 206.500 421 C 206.225 421, 206 421.225, 206 421.500 M 356.750 421.662 C 357.438 421.940, 358.563 421.940, 359.250 421.662 C 359.938 421.385, 359.375 421.158, 358 421.158 C 356.625 421.158, 356.063 421.385, 356.750 421.662 M 627.763 421.967 C 601.882 426.686, 582.856 444.552, 575.852 470.713 C 573.288 480.291, 572.750 501.448, 574.852 510 C 579.219 527.758, 591.364 543.162, 607.058 550.847 C 618.678 556.536, 625.405 558.096, 638.500 558.135 C 657.968 558.194, 672.112 552.860, 684.093 540.941 C 690.187 534.880, 695.502 526.278, 697.496 519.250 L 698.135 517 681.270 517 L 664.406 517 660.453 521.085 C 655.127 526.588, 649.772 529.168, 642.457 529.755 C 626.420 531.043, 614.145 521.320, 611.519 505.250 L 610.824 501 654.807 501 L 698.790 501 699.170 497.013 C 699.766 490.765, 698.303 474.380, 696.453 466.586 C 691.184 444.383, 676.577 428.832, 655.977 423.494 C 648.380 421.525, 634.348 420.766, 627.763 421.967 M 181 422.500 C 181 422.775, 181.225 423, 181.500 423 C 181.775 423, 182 422.775, 182 422.500 C 182 422.225, 181.775 422, 181.500 422 C 181.225 422, 181 422.225, 181 422.500 M 212 422.500 C 212 422.775, 212.225 423, 212.500 423 C 212.775 423, 213 422.775, 213 422.500 C 213 422.225, 212.775 422, 212.500 422 C 212.225 422, 212 422.225, 212 422.500 M 368 422.500 C 368 422.775, 368.225 423, 368.500 423 C 368.775 423, 369 422.775, 369 422.500 C 369 422.225, 368.775 422, 368.500 422 C 368.225 422, 368 422.225, 368 422.500 M 176 423.500 C 176 423.775, 176.225 424, 176.500 424 C 176.775 424, 177 423.775, 177 423.500 C 177 423.225, 176.775 423, 176.500 423 C 176.225 423, 176 423.225, 176 423.500 M 216 423.500 C 216 423.775, 216.225 424, 216.500 424 C 216.775 424, 217 423.775, 217 423.500 C 217 423.225, 216.775 423, 216.500 423 C 216.225 423, 216 423.225, 216 423.500 M 373 423.500 C 373 423.775, 373.225 424, 373.500 424 C 373.775 424, 374 423.775, 374 423.500 C 374 423.225, 373.775 423, 373.500 423 C 373.225 423, 373 423.225, 373 423.500 M 173 424.500 C 173 424.775, 173.225 425, 173.500 425 C 173.775 425, 174 424.775, 174 424.500 C 174 424.225, 173.775 424, 173.500 424 C 173.225 424, 173 424.225, 173 424.500 M 219 424.500 C 219 424.775, 219.225 425, 219.500 425 C 219.775 425, 220 424.775, 220 424.500 C 220 424.225, 219.775 424, 219.500 424 C 219.225 424, 219 424.225, 219 424.500 M 376 424.500 C 376 424.775, 376.225 425, 376.500 425 C 376.775 425, 377 424.775, 377 424.500 C 377 424.225, 376.775 424, 376.500 424 C 376.225 424, 376 424.225, 376 424.500 M 430 424.500 C 430 424.775, 430.225 425, 430.500 425 C 430.775 425, 431 424.775, 431 424.500 C 431 424.225, 430.775 424, 430.500 424 C 430.225 424, 430 424.225, 430 424.500 M 222 425.500 C 222 425.775, 222.225 426, 222.500 426 C 222.775 426, 223 425.775, 223 425.500 C 223 425.225, 222.775 425, 222.500 425 C 222.225 425, 222 425.225, 222 425.500 M 338 425.500 C 338 425.775, 338.225 426, 338.500 426 C 338.775 426, 339 425.775, 339 425.500 C 339 425.225, 338.775 425, 338.500 425 C 338.225 425, 338 425.225, 338 425.500 M 168 426.500 C 168 426.775, 168.225 427, 168.500 427 C 168.775 427, 169 426.775, 169 426.500 C 169 426.225, 168.775 426, 168.500 426 C 168.225 426, 168 426.225, 168 426.500 M 336 426.500 C 336 426.775, 336.225 427, 336.500 427 C 336.775 427, 337 426.775, 337 426.500 C 337 426.225, 336.775 426, 336.500 426 C 336.225 426, 336 426.225, 336 426.500 M 430 426.500 C 430 426.775, 430.225 427, 430.500 427 C 430.775 427, 431 426.775, 431 426.500 C 431 426.225, 430.775 426, 430.500 426 C 430.225 426, 430 426.225, 430 426.500 M 334 427.500 C 334 427.775, 334.225 428, 334.500 428 C 334.775 428, 335 427.775, 335 427.500 C 335 427.225, 334.775 427, 334.500 427 C 334.225 427, 334 427.225, 334 427.500 M 331 429.500 C 331 429.775, 331.225 430, 331.500 430 C 331.775 430, 332 429.775, 332 429.500 C 332 429.225, 331.775 429, 331.500 429 C 331.225 429, 331 429.225, 331 429.500 M 232 430.500 C 232 430.775, 232.225 431, 232.500 431 C 232.775 431, 233 430.775, 233 430.500 C 233 430.225, 232.775 430, 232.500 430 C 232.225 430, 232 430.225, 232 430.500 M 238 434.500 C 238 434.775, 238.225 435, 238.500 435 C 238.775 435, 239 434.775, 239 434.500 C 239 434.225, 238.775 434, 238.500 434 C 238.225 434, 238 434.225, 238 434.500 M 149.437 439.250 L 146.500 442.500 149.750 439.563 C 152.779 436.825, 153.460 436, 152.687 436 C 152.515 436, 151.052 437.462, 149.437 439.250 M 320 439.500 C 320 439.775, 320.225 440, 320.500 440 C 320.775 440, 321 439.775, 321 439.500 C 321 439.225, 320.775 439, 320.500 439 C 320.225 439, 320 439.225, 320 439.500 M 399 441.500 C 399 441.775, 399.225 442, 399.500 442 C 399.775 442, 400 441.775, 400 441.500 C 400 441.225, 399.775 441, 399.500 441 C 399.225 441, 399 441.225, 399 441.500 M 249 445.500 C 249 445.775, 249.225 446, 249.500 446 C 249.775 446, 250 445.775, 250 445.500 C 250 445.225, 249.775 445, 249.500 445 C 249.225 445, 249 445.225, 249 445.500 M 143 446.500 C 143 446.775, 143.225 447, 143.500 447 C 143.775 447, 144 446.775, 144 446.500 C 144 446.225, 143.775 446, 143.500 446 C 143.225 446, 143 446.225, 143 446.500 M 403 447.500 C 403 447.775, 403.225 448, 403.500 448 C 403.775 448, 404 447.775, 404 447.500 C 404 447.225, 403.775 447, 403.500 447 C 403.225 447, 403 447.225, 403 447.500 M 251 448.500 C 251 448.775, 251.225 449, 251.500 449 C 251.775 449, 252 448.775, 252 448.500 C 252 448.225, 251.775 448, 251.500 448 C 251.225 448, 251 448.225, 251 448.500 M 141 449.500 C 141 449.775, 141.225 450, 141.500 450 C 141.775 450, 142 449.775, 142 449.500 C 142 449.225, 141.775 449, 141.500 449 C 141.225 449, 141 449.225, 141 449.500 M 404 449.500 C 404 449.775, 404.225 450, 404.500 450 C 404.775 450, 405 449.775, 405 449.500 C 405 449.225, 404.775 449, 404.500 449 C 404.225 449, 404 449.225, 404 449.500 M 631.144 450.086 C 622.856 452.619, 615.538 460.491, 613.096 469.500 C 610.896 477.612, 608.863 477, 638 477 L 664 477 664 474.115 C 664 465.620, 657.990 455.566, 650.683 451.838 C 645.943 449.420, 636.186 448.545, 631.144 450.086 M 253 451.500 C 253 451.775, 253.225 452, 253.500 452 C 253.775 452, 254 451.775, 254 451.500 C 254 451.225, 253.775 451, 253.500 451 C 253.225 451, 253 451.225, 253 451.500 M 405 451.500 C 405 451.775, 405.225 452, 405.500 452 C 405.775 452, 406 451.775, 406 451.500 C 406 451.225, 405.775 451, 405.500 451 C 405.225 451, 405 451.225, 405 451.500 M 191 452.500 C 191 452.775, 191.225 453, 191.500 453 C 191.775 453, 192 452.775, 192 452.500 C 192 452.225, 191.775 452, 191.500 452 C 191.225 452, 191 452.225, 191 452.500 M 203 452.500 C 203 452.775, 203.225 453, 203.500 453 C 203.775 453, 204 452.775, 204 452.500 C 204 452.225, 203.775 452, 203.500 452 C 203.225 452, 203 452.225, 203 452.500 M 188 453.500 C 188 453.775, 188.225 454, 188.500 454 C 188.775 454, 189 453.775, 189 453.500 C 189 453.225, 188.775 453, 188.500 453 C 188.225 453, 188 453.225, 188 453.500 M 406 453.500 C 406 453.775, 406.225 454, 406.500 454 C 406.775 454, 407 453.775, 407 453.500 C 407 453.225, 406.775 453, 406.500 453 C 406.225 453, 406 453.225, 406 453.500 M 343 454.500 C 343 454.775, 343.225 455, 343.500 455 C 343.775 455, 344 454.775, 344 454.500 C 344 454.225, 343.775 454, 343.500 454 C 343.225 454, 343 454.225, 343 454.500 M 352 454.500 C 352 454.775, 352.225 455, 352.500 455 C 352.775 455, 353 454.775, 353 454.500 C 353 454.225, 352.775 454, 352.500 454 C 352.225 454, 352 454.225, 352 454.500 M 491.500 454.922 C 475.468 459.333, 467.860 472.992, 469.276 494.819 C 470.616 515.479, 480.491 526.965, 496.934 526.990 C 508.256 527.007, 516.484 521.008, 521.086 509.381 C 523.090 504.317, 523.420 501.695, 523.457 490.500 C 523.492 479.935, 523.129 476.500, 521.521 472.162 C 519.112 465.666, 514.094 459.599, 508.967 456.983 C 504.575 454.742, 495.881 453.717, 491.500 454.922 M 356 455.500 C 356 455.775, 356.225 456, 356.500 456 C 356.775 456, 357 455.775, 357 455.500 C 357 455.225, 356.775 455, 356.500 455 C 356.225 455, 356 455.225, 356 455.500 M 212 456.500 C 212 456.775, 212.225 457, 212.500 457 C 212.775 457, 213 456.775, 213 456.500 C 213 456.225, 212.775 456, 212.500 456 C 212.225 456, 212 456.225, 212 456.500 M 336 456.500 C 336 456.775, 336.225 457, 336.500 457 C 336.775 457, 337 456.775, 337 456.500 C 337 456.225, 336.775 456, 336.500 456 C 336.225 456, 336 456.225, 336 456.500 M 334 457.500 C 334 457.775, 334.225 458, 334.500 458 C 334.775 458, 335 457.775, 335 457.500 C 335 457.225, 334.775 457, 334.500 457 C 334.225 457, 334 457.225, 334 457.500 M 362 458.500 C 362 458.775, 362.225 459, 362.500 459 C 362.775 459, 363 458.775, 363 458.500 C 363 458.225, 362.775 458, 362.500 458 C 362.225 458, 362 458.225, 362 458.500 M 408 458.500 C 408 458.775, 408.225 459, 408.500 459 C 408.775 459, 409 458.775, 409 458.500 C 409 458.225, 408.775 458, 408.500 458 C 408.225 458, 408 458.225, 408 458.500 M 135 461.500 C 135 461.775, 135.225 462, 135.500 462 C 135.775 462, 136 461.775, 136 461.500 C 136 461.225, 135.775 461, 135.500 461 C 135.225 461, 135 461.225, 135 461.500 M 217 461.500 C 217 461.775, 217.225 462, 217.500 462 C 217.775 462, 218 461.775, 218 461.500 C 218 461.225, 217.775 461, 217.500 461 C 217.225 461, 217 461.225, 217 461.500 M 409 461.500 C 409 461.775, 409.225 462, 409.500 462 C 409.775 462, 410 461.775, 410 461.500 C 410 461.225, 409.775 461, 409.500 461 C 409.225 461, 409 461.225, 409 461.500 M 176 462.500 C 176 462.775, 176.225 463, 176.500 463 C 176.775 463, 177 462.775, 177 462.500 C 177 462.225, 176.775 462, 176.500 462 C 176.225 462, 176 462.225, 176 462.500 M 134 464.500 C 134 464.775, 134.225 465, 134.500 465 C 134.775 465, 135 464.775, 135 464.500 C 135 464.225, 134.775 464, 134.500 464 C 134.225 464, 134 464.225, 134 464.500 M 219 464.500 C 219 464.775, 219.225 465, 219.500 465 C 219.775 465, 220 464.775, 220 464.500 C 220 464.225, 219.775 464, 219.500 464 C 219.225 464, 219 464.225, 219 464.500 M 259 464.500 C 259 464.775, 259.225 465, 259.500 465 C 259.775 465, 260 464.775, 260 464.500 C 260 464.225, 259.775 464, 259.500 464 C 259.225 464, 259 464.225, 259 464.500 M 325 465.500 C 325 465.775, 325.225 466, 325.500 466 C 325.775 466, 326 465.775, 326 465.500 C 326 465.225, 325.775 465, 325.500 465 C 325.225 465, 325 465.225, 325 465.500 M 220 466.500 C 220 466.775, 220.225 467, 220.500 467 C 220.775 467, 221 466.775, 221 466.500 C 221 466.225, 220.775 466, 220.500 466 C 220.225 466, 220 466.225, 220 466.500 M 133 467.500 C 133 467.775, 133.225 468, 133.500 468 C 133.775 468, 134 467.775, 134 467.500 C 134 467.225, 133.775 467, 133.500 467 C 133.225 467, 133 467.225, 133 467.500 M 173 467.500 C 173 467.775, 173.225 468, 173.500 468 C 173.775 468, 174 467.775, 174 467.500 C 174 467.225, 173.775 467, 173.500 467 C 173.225 467, 173 467.225, 173 467.500 M 221 468.500 C 221 468.775, 221.225 469, 221.500 469 C 221.775 469, 222 468.775, 222 468.500 C 222 468.225, 221.775 468, 221.500 468 C 221.225 468, 221 468.225, 221 468.500 M 411 468.500 C 411 468.775, 411.225 469, 411.500 469 C 411.775 469, 412 468.775, 412 468.500 C 412 468.225, 411.775 468, 411.500 468 C 411.225 468, 411 468.225, 411 468.500 M 132 471.500 C 132 471.775, 132.225 472, 132.500 472 C 132.775 472, 133 471.775, 133 471.500 C 133 471.225, 132.775 471, 132.500 471 C 132.225 471, 132 471.225, 132 471.500 M 222 471.500 C 222 471.775, 222.225 472, 222.500 472 C 222.775 472, 223 471.775, 223 471.500 C 223 471.225, 222.775 471, 222.500 471 C 222.225 471, 222 471.225, 222 471.500 M 261 471.500 C 261 471.775, 261.225 472, 261.500 472 C 261.775 472, 262 471.775, 262 471.500 C 262 471.225, 261.775 471, 261.500 471 C 261.225 471, 261 471.225, 261 471.500 M 372 472.500 C 372 472.775, 372.225 473, 372.500 473 C 372.775 473, 373 472.775, 373 472.500 C 373 472.225, 372.775 472, 372.500 472 C 372.225 472, 372 472.225, 372 472.500 M 321 473.500 C 321 473.775, 321.225 474, 321.500 474 C 321.775 474, 322 473.775, 322 473.500 C 322 473.225, 321.775 473, 321.500 473 C 321.225 473, 321 473.225, 321 473.500 M 412 474.500 C 412 474.775, 412.225 475, 412.500 475 C 412.775 475, 413 474.775, 413 474.500 C 413 474.225, 412.775 474, 412.500 474 C 412.225 474, 412 474.225, 412 474.500 M 223 475.500 C 223 475.775, 223.225 476, 223.500 476 C 223.775 476, 224 475.775, 224 475.500 C 224 475.225, 223.775 475, 223.500 475 C 223.225 475, 223 475.225, 223 475.500 M 131 476.500 C 131 476.775, 131.225 477, 131.500 477 C 131.775 477, 132 476.775, 132 476.500 C 132 476.225, 131.775 476, 131.500 476 C 131.225 476, 131 476.225, 131 476.500 M 373 476.500 C 373 476.775, 373.225 477, 373.500 477 C 373.775 477, 374 476.775, 374 476.500 C 374 476.225, 373.775 476, 373.500 476 C 373.225 476, 373 476.225, 373 476.500 M 170 477.500 C 170 477.775, 170.225 478, 170.500 478 C 170.775 478, 171 477.775, 171 477.500 C 171 477.225, 170.775 477, 170.500 477 C 170.225 477, 170 477.225, 170 477.500 M 262 477.500 C 262 477.775, 262.225 478, 262.500 478 C 262.775 478, 263 477.775, 263 477.500 C 263 477.225, 262.775 477, 262.500 477 C 262.225 477, 262 477.225, 262 477.500 M 224 481.500 C 224 481.775, 224.225 482, 224.500 482 C 224.775 482, 225 481.775, 225 481.500 C 225 481.225, 224.775 481, 224.500 481 C 224.225 481, 224 481.225, 224 481.500 M 319 481.500 C 319 481.775, 319.225 482, 319.500 482 C 319.775 482, 320 481.775, 320 481.500 C 320 481.225, 319.775 481, 319.500 481 C 319.225 481, 319 481.225, 319 481.500 M 374 482.500 C 374 482.775, 374.225 483, 374.500 483 C 374.775 483, 375 482.775, 375 482.500 C 375 482.225, 374.775 482, 374.500 482 C 374.225 482, 374 482.225, 374 482.500 M 413 483 C 413 483.733, 413.300 484.033, 413.667 483.667 C 414.033 483.300, 414.033 482.700, 413.667 482.333 C 413.300 481.967, 413 482.267, 413 483 M 169.300 489 C 169.300 492.025, 169.487 493.262, 169.716 491.750 C 169.945 490.238, 169.945 487.762, 169.716 486.250 C 169.487 484.738, 169.300 485.975, 169.300 489 M 130.300 490 C 130.300 493.025, 130.487 494.262, 130.716 492.750 C 130.945 491.238, 130.945 488.762, 130.716 487.250 C 130.487 485.738, 130.300 486.975, 130.300 490 M 413.079 496.583 C 413.127 497.748, 413.364 497.985, 413.683 497.188 C 413.972 496.466, 413.936 495.603, 413.604 495.271 C 413.272 494.939, 413.036 495.529, 413.079 496.583 M 224 498 C 224 498.733, 224.300 499.033, 224.667 498.667 C 225.033 498.300, 225.033 497.700, 224.667 497.333 C 224.300 496.967, 224 497.267, 224 498 M 374 497.500 C 374 497.775, 374.225 498, 374.500 498 C 374.775 498, 375 497.775, 375 497.500 C 375 497.225, 374.775 497, 374.500 497 C 374.225 497, 374 497.225, 374 497.500 M 319 499.500 C 319 499.775, 319.225 500, 319.500 500 C 319.775 500, 320 499.775, 320 499.500 C 320 499.225, 319.775 499, 319.500 499 C 319.225 499, 319 499.225, 319 499.500 M 262 502.500 C 262 502.775, 262.225 503, 262.500 503 C 262.775 503, 263 502.775, 263 502.500 C 263 502.225, 262.775 502, 262.500 502 C 262.225 502, 262 502.225, 262 502.500 M 131 503.500 C 131 503.775, 131.225 504, 131.500 504 C 131.775 504, 132 503.775, 132 503.500 C 132 503.225, 131.775 503, 131.500 503 C 131.225 503, 131 503.225, 131 503.500 M 373 503.500 C 373 503.775, 373.225 504, 373.500 504 C 373.775 504, 374 503.775, 374 503.500 C 374 503.225, 373.775 503, 373.500 503 C 373.225 503, 373 503.225, 373 503.500 M 223 504.500 C 223 504.775, 223.225 505, 223.500 505 C 223.775 505, 224 504.775, 224 504.500 C 224 504.225, 223.775 504, 223.500 504 C 223.225 504, 223 504.225, 223 504.500 M 171 506.500 C 171 506.775, 171.225 507, 171.500 507 C 171.775 507, 172 506.775, 172 506.500 C 172 506.225, 171.775 506, 171.500 506 C 171.225 506, 171 506.225, 171 506.500 M 321 507.500 C 321 507.775, 321.225 508, 321.500 508 C 321.775 508, 322 507.775, 322 507.500 C 322 507.225, 321.775 507, 321.500 507 C 321.225 507, 321 507.225, 321 507.500 M 372 507.500 C 372 507.775, 372.225 508, 372.500 508 C 372.775 508, 373 507.775, 373 507.500 C 373 507.225, 372.775 507, 372.500 507 C 372.225 507, 372 507.225, 372 507.500 M 261 508.500 C 261 508.775, 261.225 509, 261.500 509 C 261.775 509, 262 508.775, 262 508.500 C 262 508.225, 261.775 508, 261.500 508 C 261.225 508, 261 508.225, 261 508.500 M 172 509.500 C 172 509.775, 172.225 510, 172.500 510 C 172.775 510, 173 509.775, 173 509.500 C 173 509.225, 172.775 509, 172.500 509 C 172.225 509, 172 509.225, 172 509.500 M 133 512.500 C 133 512.775, 133.225 513, 133.500 513 C 133.775 513, 134 512.775, 134 512.500 C 134 512.225, 133.775 512, 133.500 512 C 133.225 512, 133 512.225, 133 512.500 M 260 512.500 C 260 512.775, 260.225 513, 260.500 513 C 260.775 513, 261 512.775, 261 512.500 C 261 512.225, 260.775 512, 260.500 512 C 260.225 512, 260 512.225, 260 512.500 M 370 512.500 C 370 512.775, 370.225 513, 370.500 513 C 370.775 513, 371 512.775, 371 512.500 C 371 512.225, 370.775 512, 370.500 512 C 370.225 512, 370 512.225, 370 512.500 M 369 514.500 C 369 514.775, 369.225 515, 369.500 515 C 369.775 515, 370 514.775, 370 514.500 C 370 514.225, 369.775 514, 369.500 514 C 369.225 514, 369 514.225, 369 514.500 M 325 515.500 C 325 515.775, 325.225 516, 325.500 516 C 325.775 516, 326 515.775, 326 515.500 C 326 515.225, 325.775 515, 325.500 515 C 325.225 515, 325 515.225, 325 515.500 M 176 517.500 C 176 517.775, 176.225 518, 176.500 518 C 176.775 518, 177 517.775, 177 517.500 C 177 517.225, 176.775 517, 176.500 517 C 176.225 517, 176 517.225, 176 517.500 M 367 517.500 C 367 517.775, 367.225 518, 367.500 518 C 367.775 518, 368 517.775, 368 517.500 C 368 517.225, 367.775 517, 367.500 517 C 367.225 517, 367 517.225, 367 517.500 M 135 518.500 C 135 518.775, 135.225 519, 135.500 519 C 135.775 519, 136 518.775, 136 518.500 C 136 518.225, 135.775 518, 135.500 518 C 135.225 518, 135 518.225, 135 518.500 M 258 518.500 C 258 518.775, 258.225 519, 258.500 519 C 258.775 519, 259 518.775, 259 518.500 C 259 518.225, 258.775 518, 258.500 518 C 258.225 518, 258 518.225, 258 518.500 M 409 518.500 C 409 518.775, 409.225 519, 409.500 519 C 409.775 519, 410 518.775, 410 518.500 C 410 518.225, 409.775 518, 409.500 518 C 409.225 518, 409 518.225, 409 518.500 M 362 522.500 C 362 522.775, 362.225 523, 362.500 523 C 362.775 523, 363 522.775, 363 522.500 C 363 522.225, 362.775 522, 362.500 522 C 362.225 522, 362 522.225, 362 522.500 M 256 523.500 C 256 523.775, 256.225 524, 256.500 524 C 256.775 524, 257 523.775, 257 523.500 C 257 523.225, 256.775 523, 256.500 523 C 256.225 523, 256 523.225, 256 523.500 M 333 523.500 C 333 523.775, 333.225 524, 333.500 524 C 333.775 524, 334 523.775, 334 523.500 C 334 523.225, 333.775 523, 333.500 523 C 333.225 523, 333 523.225, 333 523.500 M 184 524.500 C 184 524.775, 184.225 525, 184.500 525 C 184.775 525, 185 524.775, 185 524.500 C 185 524.225, 184.775 524, 184.500 524 C 184.225 524, 184 524.225, 184 524.500 M 335 524.500 C 335 524.775, 335.225 525, 335.500 525 C 335.775 525, 336 524.775, 336 524.500 C 336 524.225, 335.775 524, 335.500 524 C 335.225 524, 335 524.225, 335 524.500 M 359 524.500 C 359 524.775, 359.225 525, 359.500 525 C 359.775 525, 360 524.775, 360 524.500 C 360 524.225, 359.775 524, 359.500 524 C 359.225 524, 359 524.225, 359 524.500 M 186 525.500 C 186 525.775, 186.225 526, 186.500 526 C 186.775 526, 187 525.775, 187 525.500 C 187 525.225, 186.775 525, 186.500 525 C 186.225 525, 186 525.225, 186 525.500 M 255 525.500 C 255 525.775, 255.225 526, 255.500 526 C 255.775 526, 256 525.775, 256 525.500 C 256 525.225, 255.775 525, 255.500 525 C 255.225 525, 255 525.225, 255 525.500 M 205 526.500 C 205 526.775, 205.225 527, 205.500 527 C 205.775 527, 206 526.775, 206 526.500 C 206 526.225, 205.775 526, 205.500 526 C 205.225 526, 205 526.225, 205 526.500 M 201 527.500 C 201 527.775, 201.225 528, 201.500 528 C 201.775 528, 202 527.775, 202 527.500 C 202 527.225, 201.775 527, 201.500 527 C 201.225 527, 201 527.225, 201 527.500 M 252 530.500 C 252 530.775, 252.225 531, 252.500 531 C 252.775 531, 253 530.775, 253 530.500 C 253 530.225, 252.775 530, 252.500 530 C 252.225 530, 252 530.225, 252 530.500 M 250 533.500 C 250 533.775, 250.225 534, 250.500 534 C 250.775 534, 251 533.775, 251 533.500 C 251 533.225, 250.775 533, 250.500 533 C 250.225 533, 250 533.225, 250 533.500 M 402 533.500 C 402 533.775, 402.225 534, 402.500 534 C 402.775 534, 403 533.775, 403 533.500 C 403 533.225, 402.775 533, 402.500 533 C 402.225 533, 402 533.225, 402 533.500 M 144 534.500 C 144 534.775, 144.225 535, 144.500 535 C 144.775 535, 145 534.775, 145 534.500 C 145 534.225, 144.775 534, 144.500 534 C 144.225 534, 144 534.225, 144 534.500 M 400 536.500 C 400 536.775, 400.225 537, 400.500 537 C 400.775 537, 401 536.775, 401 536.500 C 401 536.225, 400.775 536, 400.500 536 C 400.225 536, 400 536.225, 400 536.500 M 394.405 543.250 L 392.500 545.500 394.750 543.595 C 396.864 541.805, 397.455 541, 396.655 541 C 396.465 541, 395.453 542.013, 394.405 543.250 M 320 545 C 320 545.733, 320.300 546.033, 320.667 545.667 C 321.033 545.300, 321.033 544.700, 320.667 544.333 C 320.300 543.967, 320 544.267, 320 545 M 155 545.500 C 155 545.775, 155.225 546, 155.500 546 C 155.775 546, 156 545.775, 156 545.500 C 156 545.225, 155.775 545, 155.500 545 C 155.225 545, 155 545.225, 155 545.500 M 238 545.500 C 238 545.775, 238.225 546, 238.500 546 C 238.775 546, 239 545.775, 239 545.500 C 239 545.225, 238.775 545, 238.500 545 C 238.225 545, 238 545.225, 238 545.500 M 158 547.500 C 158 547.775, 158.225 548, 158.500 548 C 158.775 548, 159 547.775, 159 547.500 C 159 547.225, 158.775 547, 158.500 547 C 158.225 547, 158 547.225, 158 547.500 M 320.439 574 C 320.439 589.125, 320.578 595.313, 320.748 587.750 C 320.917 580.188, 320.917 567.813, 320.748 560.250 C 320.578 552.688, 320.439 558.875, 320.439 574 M 388 548.500 C 388 548.775, 388.225 549, 388.500 549 C 388.775 549, 389 548.775, 389 548.500 C 389 548.225, 388.775 548, 388.500 548 C 388.225 548, 388 548.225, 388 548.500 M 161 549.500 C 161 549.775, 161.225 550, 161.500 550 C 161.775 550, 162 549.775, 162 549.500 C 162 549.225, 161.775 549, 161.500 549 C 161.225 549, 161 549.225, 161 549.500 M 232 549.500 C 232 549.775, 232.225 550, 232.500 550 C 232.775 550, 233 549.775, 233 549.500 C 233 549.225, 232.775 549, 232.500 549 C 232.225 549, 232 549.225, 232 549.500 M 163 550.500 C 163 550.775, 163.225 551, 163.500 551 C 163.775 551, 164 550.775, 164 550.500 C 164 550.225, 163.775 550, 163.500 550 C 163.225 550, 163 550.225, 163 550.500 M 165 551.500 C 165 551.775, 165.225 552, 165.500 552 C 165.775 552, 166 551.775, 166 551.500 C 166 551.225, 165.775 551, 165.500 551 C 165.225 551, 165 551.225, 165 551.500 M 167 552.500 C 167 552.775, 167.225 553, 167.500 553 C 167.775 553, 168 552.775, 168 552.500 C 168 552.225, 167.775 552, 167.500 552 C 167.225 552, 167 552.225, 167 552.500 M 224 553.500 C 224 553.775, 224.225 554, 224.500 554 C 224.775 554, 225 553.775, 225 553.500 C 225 553.225, 224.775 553, 224.500 553 C 224.225 553, 224 553.225, 224 553.500 M 172 554.500 C 172 554.775, 172.225 555, 172.500 555 C 172.775 555, 173 554.775, 173 554.500 C 173 554.225, 172.775 554, 172.500 554 C 172.225 554, 172 554.225, 172 554.500 M 175 555.500 C 175 555.775, 175.225 556, 175.500 556 C 175.775 556, 176 555.775, 176 555.500 C 176 555.225, 175.775 555, 175.500 555 C 175.225 555, 175 555.225, 175 555.500 M 339 555.500 C 339 555.775, 339.225 556, 339.500 556 C 339.775 556, 340 555.775, 340 555.500 C 340 555.225, 339.775 555, 339.500 555 C 339.225 555, 339 555.225, 339 555.500 M 375 555.500 C 375 555.775, 375.225 556, 375.500 556 C 375.775 556, 376 555.775, 376 555.500 C 376 555.225, 375.775 555, 375.500 555 C 375.225 555, 375 555.225, 375 555.500 M 215 556.500 C 215 556.775, 215.225 557, 215.500 557 C 215.775 557, 216 556.775, 216 556.500 C 216 556.225, 215.775 556, 215.500 556 C 215.225 556, 215 556.225, 215 556.500 M 342 556.500 C 342 556.775, 342.225 557, 342.500 557 C 342.775 557, 343 556.775, 343 556.500 C 343 556.225, 342.775 556, 342.500 556 C 342.225 556, 342 556.225, 342 556.500 M 372 556.500 C 372 556.775, 372.225 557, 372.500 557 C 372.775 557, 373 556.775, 373 556.500 C 373 556.225, 372.775 556, 372.500 556 C 372.225 556, 372 556.225, 372 556.500 M 183 557.500 C 183 557.775, 183.225 558, 183.500 558 C 183.775 558, 184 557.775, 184 557.500 C 184 557.225, 183.775 557, 183.500 557 C 183.225 557, 183 557.225, 183 557.500 M 210 557.500 C 210 557.775, 210.225 558, 210.500 558 C 210.775 558, 211 557.775, 211 557.500 C 211 557.225, 210.775 557, 210.500 557 C 210.225 557, 210 557.225, 210 557.500 M 367 557.500 C 367 557.775, 367.225 558, 367.500 558 C 367.775 558, 368 557.775, 368 557.500 C 368 557.225, 367.775 557, 367.500 557 C 367.225 557, 367 557.225, 367 557.500 M 190.333 558.667 C 190.700 559.033, 191.300 559.033, 191.667 558.667 C 192.033 558.300, 191.733 558, 191 558 C 190.267 558, 189.967 558.300, 190.333 558.667 M 202.333 558.667 C 202.700 559.033, 203.300 559.033, 203.667 558.667 C 204.033 558.300, 203.733 558, 203 558 C 202.267 558, 201.967 558.300, 202.333 558.667 M 353.333 558.667 C 353.700 559.033, 354.300 559.033, 354.667 558.667 C 355.033 558.300, 354.733 558, 354 558 C 353.267 558, 352.967 558.300, 353.333 558.667 M 359.813 558.683 C 360.534 558.972, 361.397 558.936, 361.729 558.604 C 362.061 558.272, 361.471 558.036, 360.417 558.079 C 359.252 558.127, 359.015 558.364, 359.813 558.683 M 430 599.500 C 430 599.775, 430.225 600, 430.500 600 C 430.775 600, 431 599.775, 431 599.500 C 431 599.225, 430.775 599, 430.500 599 C 430.225 599, 430 599.225, 430 599.500 M 430 601.500 C 430 601.775, 430.225 602, 430.500 602 C 430.775 602, 431 601.775, 431 601.500 C 431 601.225, 430.775 601, 430.500 601 C 430.225 601, 430 601.225, 430 601.500"/><path fill-rule="evenodd" fill="#050505" stroke="none" d="M 164.001 372.070 C 151.130 377.477, 149.307 396.881, 160.946 404.583 C 176.588 414.934, 195.795 398.890, 188.232 381.791 C 185.247 375.044, 180.192 371.645, 172.630 371.300 C 169.258 371.146, 165.375 371.493, 164.001 372.070 M 216.500 372.573 C 211.837 374.998, 209.196 377.919, 207.389 382.651 C 201.516 398.030, 217.156 412.890, 232.209 406.232 C 240.409 402.604, 244.397 394.259, 242.574 384.541 C 241.757 380.190, 236.700 374.190, 232.298 372.351 C 227.968 370.542, 220.195 370.651, 216.500 372.573 M 728.955 391.750 C 728.930 392.163, 728.949 399.587, 728.998 408.250 L 729.086 424 718.543 424 L 708 424 708 438.500 L 708 453 718.513 453 L 729.025 453 728.976 491.005 C 728.925 529.273, 729.252 533.599, 732.715 540.500 C 734.694 544.443, 740.762 550.778, 744.378 552.674 C 754.289 557.872, 772.078 558.940, 784.250 555.067 L 791 552.920 791 537.853 C 791 523.908, 790.870 522.837, 789.250 523.475 C 786.243 524.660, 777.359 525.290, 773.601 524.585 C 766.803 523.310, 766.545 521.942, 766.176 485.250 L 765.853 453 778.426 453 L 791 453 791 438.500 L 791 424 778.500 424 L 766 424 766 407.500 L 766 391 747.500 391 C 737.325 391, 728.980 391.337, 728.955 391.750 M 181.998 422.420 C 167.716 425.413, 158.194 430.762, 148.273 441.367 C 141.023 449.117, 135.856 459.042, 132.875 470.944 C 130.016 482.355, 130.569 503.974, 133.975 514 C 139.785 531.103, 150.426 543.740, 165 550.846 C 176.747 556.573, 184.348 558.349, 197 558.324 C 216.877 558.285, 231.277 552.690, 244.118 540.018 C 258.003 526.316, 263.702 509.811, 262.746 486.073 C 262.122 470.567, 259.234 460.676, 252.174 449.869 C 243.947 437.276, 232.364 428.631, 217.500 423.992 C 208.616 421.220, 191.371 420.456, 181.998 422.420 M 627.763 421.967 C 601.882 426.686, 582.856 444.552, 575.852 470.713 C 573.288 480.291, 572.750 501.448, 574.852 510 C 579.219 527.758, 591.364 543.162, 607.058 550.847 C 618.678 556.536, 625.405 558.096, 638.500 558.135 C 657.968 558.194, 672.112 552.860, 684.093 540.941 C 690.187 534.880, 695.502 526.278, 697.496 519.250 L 698.135 517 681.270 517 L 664.406 517 660.453 521.085 C 655.127 526.588, 649.772 529.168, 642.457 529.755 C 626.420 531.043, 614.145 521.320, 611.519 505.250 L 610.824 501 654.807 501 L 698.790 501 699.170 497.013 C 699.766 490.765, 698.303 474.380, 696.453 466.586 C 691.184 444.383, 676.577 428.832, 655.977 423.494 C 648.380 421.525, 634.348 420.766, 627.763 421.967 M 343.487 423.799 C 336.098 426.354, 329.923 430.275, 325.172 435.429 C 322.855 437.943, 320.856 440.001, 320.729 440.002 C 320.603 440.004, 320.647 436.404, 320.826 432.002 L 321.152 424 301.076 424 L 281 424 281 513 L 281 602 300.500 602 L 320 602 320 571.093 L 320 540.185 326.250 546.430 C 330.870 551.046, 334.065 553.266, 338.500 554.943 C 353.930 560.774, 372.914 558.819, 386.105 550.040 C 405.901 536.866, 416.427 509.302, 412.998 479.623 C 409.519 449.520, 394.975 429.396, 372.458 423.531 C 364.469 421.450, 349.889 421.585, 343.487 423.799 M 492.762 423.942 C 485.379 426.302, 477.901 431.126, 473.512 436.359 L 470.039 440.500 470.020 432.229 L 470 423.958 450.250 424.229 L 430.500 424.500 430.500 513 L 430.500 601.500 450.250 601.771 L 470 602.042 470 570.871 L 470 539.700 472.881 543.677 C 479.179 552.371, 492.277 558, 506.211 558 C 527.690 558, 545.528 546.962, 554.881 527.883 C 561.429 514.524, 562.503 509.103, 562.483 489.500 C 562.468 474.810, 562.155 471.419, 560.180 464.545 C 553.782 442.284, 539.060 427.022, 520.201 423.102 C 512.173 421.433, 499.386 421.824, 492.762 423.942 M 631.144 450.086 C 622.856 452.619, 615.538 460.491, 613.096 469.500 C 610.896 477.612, 608.863 477, 638 477 L 664 477 664 474.115 C 664 465.620, 657.990 455.566, 650.683 451.838 C 645.943 449.420, 636.186 448.545, 631.144 450.086 M 188.044 453.577 C 177.074 458.336, 171.360 467.697, 169.471 484 C 168.582 491.674, 170.650 505.401, 173.735 512.313 C 181.452 529.602, 203.562 533.190, 216.197 519.203 C 222.420 512.315, 224.372 505.520, 224.439 490.500 C 224.530 470.173, 220.362 460.480, 209.064 454.750 C 202.780 451.563, 193.837 451.064, 188.044 453.577 M 338.969 455.476 C 326.425 459.510, 319.024 472.507, 319.024 490.500 C 319.024 512.627, 330.143 527, 347.260 527 C 361.542 527, 370.859 518.107, 373.907 501.566 C 377.644 481.280, 371.833 463.037, 359.654 456.823 C 354.433 454.160, 344.977 453.544, 338.969 455.476 M 491.500 454.922 C 475.468 459.333, 467.860 472.992, 469.276 494.819 C 470.616 515.479, 480.491 526.965, 496.934 526.990 C 508.256 527.007, 516.484 521.008, 521.086 509.381 C 523.090 504.317, 523.420 501.695, 523.457 490.500 C 523.492 479.935, 523.129 476.500, 521.521 472.162 C 519.112 465.666, 514.094 459.599, 508.967 456.983 C 504.575 454.742, 495.881 453.717, 491.500 454.922"/></svg>